<?xml version="1.0" standalone="no"?>
<!DOCTYPE svg PUBLIC "-//W3C//DTD SVG 20010904//EN"
 "http://www.w3.org/TR/2001/REC-SVG-20010904/DTD/svg10.dtd">
<svg version="1.0" xmlns="http://www.w3.org/2000/svg"
 width="1024.000000pt" height="1024.000000pt" viewBox="0 0 1024.000000 1024.000000"
 preserveAspectRatio="xMidYMid meet">

<g transform="translate(0.000000,1024.000000) scale(0.100000,-0.100000)"
fill="#000000" stroke="none">
<path d="M3247 8119 c-67 -44 -175 -165 -229 -257 -207 -347 -218 -803 -28
-1182 128 -256 379 -501 680 -663 112 -61 274 -129 560 -238 138 -53 267 -109
314 -137 142 -85 255 -208 293 -317 8 -25 13 -49 11 -54 -1 -5 -46 15 -98 45
-246 143 -413 214 -601 256 -88 19 -133 23 -289 23 -178 0 -330 -16 -330 -35
0 -42 27 -180 47 -245 96 -306 316 -507 641 -588 48 -12 89 -23 91 -24 2 -1
-37 -66 -86 -145 -238 -379 -366 -672 -425 -972 -32 -164 -30 -375 5 -508 39
-148 95 -246 197 -348 141 -142 350 -265 705 -416 325 -137 554 -253 748 -377
91 -58 95 -57 179 20 138 129 237 366 238 568 0 98 -23 195 -90 385 -87 249
-104 320 -104 445 0 145 36 310 77 343 7 6 42 19 78 29 130 34 343 18 699 -53
307 -62 416 -43 570 102 81 77 141 157 191 254 27 54 33 76 34 132 0 88 -12
104 -161 203 -171 113 -285 200 -486 373 -193 165 -236 211 -336 352 -158 223
-310 339 -548 419 l-86 29 -59 111 c-57 108 -77 141 -193 309 -75 110 -136
235 -174 352 -48 151 -56 209 -55 403 0 97 -2 177 -4 177 -18 0 -81 -50 -129
-103 -65 -73 -125 -189 -155 -302 -27 -101 -30 -287 -6 -385 8 -36 15 -66 14
-67 -2 -1 -113 52 -358 171 -245 119 -412 381 -463 728 -21 137 -21 397 -1
537 14 94 51 254 71 304 13 34 -90 -39 -163 -116 -89 -94 -124 -145 -184 -272
-126 -264 -150 -591 -63 -849 13 -38 24 -71 24 -73 0 -6 -107 62 -160 103
-261 199 -399 471 -432 857 -19 218 13 506 75 685 8 23 11 42 8 42 -4 0 -29
-14 -54 -31z m2627 -3215 c63 -24 122 -77 197 -175 70 -93 68 -97 -50 -80
-144 21 -262 58 -299 94 -33 32 -132 159 -132 170 0 23 218 16 284 -9z"/>
</g>
</svg>
